<svg width="38" height="31" viewBox="0 0 38 31" fill="none" xmlns="http://www.w3.org/2000/svg">
<path fill-rule="evenodd" clip-rule="evenodd" d="M0.846037 24.7637C1.41006 25.3277 2.11303 25.6098 2.95495 25.6098H18.6445V23.7805H2.95495C2.67355 23.7805 2.41558 23.6632 2.18104 23.4287C1.94652 23.1942 1.82927 22.9362 1.82927 22.6548V11.3274H32.9268V2.95495C32.9268 2.11303 32.6448 1.41006 32.0808 0.846037C31.5168 0.282012 30.8138 0 29.9719 0H2.95495C2.11303 0 1.41006 0.282012 0.846037 0.846037C0.282012 1.41006 0 2.11303 0 2.95495V22.6548C0 23.4967 0.282012 24.1997 0.846037 24.7637ZM31.0976 6.96526H1.82927V2.95495C1.82927 2.67355 1.94652 2.41558 2.18104 2.18104C2.41558 1.94653 2.67355 1.82927 2.95495 1.82927H29.9719C30.2533 1.82927 30.5112 1.94653 30.7458 2.18104C30.9803 2.41558 31.0976 2.67355 31.0976 2.95495V6.96526Z" fill="#7c7373"/>
<path d="M19.5 19.75V17.25H32.5V19.75H19.5Z" fill="#7c7373"/>
</svg>
